<mxfile host="app.diagrams.net" modified="2021-06-26T16:51:52.920Z" agent="5.0 (Macintosh; Intel Mac OS X 10_15_7) AppleWebKit/605.1.15 (KHTML, like Gecko) Version/14.1.1 Safari/605.1.15" etag="-WpUf5r_2MIUqkIll46_" version="14.8.1" type="github">
  <diagram id="BVZXGnlJsx4R9LXZ62_b" name="Page-1">
    <mxGraphModel dx="704" dy="700" grid="1" gridSize="10" guides="1" tooltips="1" connect="1" arrows="1" fold="1" page="1" pageScale="1" pageWidth="827" pageHeight="1169" math="0" shadow="0">
      <root>
        <mxCell id="0" />
        <mxCell id="1" parent="0" />
        <mxCell id="dQZ_Yxj7-OqG99hfKvkt-27" value="AppXilon" style="swimlane;" vertex="1" parent="1">
          <mxGeometry x="780" y="190" width="300" height="960" as="geometry" />
        </mxCell>
        <mxCell id="dQZ_Yxj7-OqG99hfKvkt-28" value="Displays report dashboard" style="rounded=1;whiteSpace=wrap;html=1;arcSize=40;fontColor=#000000;fillColor=#FFFFFF;" vertex="1" parent="dQZ_Yxj7-OqG99hfKvkt-27">
          <mxGeometry x="90" y="140" width="120" height="40" as="geometry" />
        </mxCell>
        <mxCell id="dQZ_Yxj7-OqG99hfKvkt-29" value="Manager" style="swimlane;fillColor=#FFFFFF;" vertex="1" parent="1">
          <mxGeometry x="120" y="190" width="660" height="1210" as="geometry" />
        </mxCell>
        <mxCell id="dQZ_Yxj7-OqG99hfKvkt-30" value="" style="ellipse;html=1;shape=startState;fillColor=#FFFFFF;" vertex="1" parent="dQZ_Yxj7-OqG99hfKvkt-29">
          <mxGeometry x="85" y="70" width="30" height="30" as="geometry" />
        </mxCell>
        <mxCell id="dQZ_Yxj7-OqG99hfKvkt-31" value="" style="edgeStyle=orthogonalEdgeStyle;html=1;verticalAlign=bottom;endArrow=open;endSize=8;" edge="1" parent="dQZ_Yxj7-OqG99hfKvkt-29" source="dQZ_Yxj7-OqG99hfKvkt-30" target="dQZ_Yxj7-OqG99hfKvkt-32">
          <mxGeometry relative="1" as="geometry">
            <mxPoint x="100" y="160" as="targetPoint" />
          </mxGeometry>
        </mxCell>
        <mxCell id="dQZ_Yxj7-OqG99hfKvkt-32" value="Selects &#39;Report&#39; tab" style="rounded=1;whiteSpace=wrap;html=1;arcSize=40;fontColor=#000000;fillColor=#FFFFFF;" vertex="1" parent="dQZ_Yxj7-OqG99hfKvkt-29">
          <mxGeometry x="40" y="140" width="120" height="40" as="geometry" />
        </mxCell>
        <mxCell id="dQZ_Yxj7-OqG99hfKvkt-33" value="Selects category report" style="rounded=1;whiteSpace=wrap;html=1;arcSize=40;fontColor=#000000;fillColor=#FFFFFF;" vertex="1" parent="dQZ_Yxj7-OqG99hfKvkt-29">
          <mxGeometry x="180" y="250" width="120" height="40" as="geometry" />
        </mxCell>
        <mxCell id="dQZ_Yxj7-OqG99hfKvkt-34" value="Enter the required criteria to search" style="rounded=1;whiteSpace=wrap;html=1;arcSize=40;fontColor=#000000;fillColor=#FFFFFF;" vertex="1" parent="dQZ_Yxj7-OqG99hfKvkt-29">
          <mxGeometry x="220" y="590" width="120" height="40" as="geometry" />
        </mxCell>
        <mxCell id="dQZ_Yxj7-OqG99hfKvkt-44" value="" style="rhombus;whiteSpace=wrap;html=1;" vertex="1" parent="dQZ_Yxj7-OqG99hfKvkt-29">
          <mxGeometry x="210" y="320" width="60" height="40" as="geometry" />
        </mxCell>
        <mxCell id="dQZ_Yxj7-OqG99hfKvkt-39" value="" style="edgeStyle=orthogonalEdgeStyle;html=1;verticalAlign=bottom;endArrow=open;endSize=8;exitX=0.5;exitY=1;exitDx=0;exitDy=0;entryX=0.5;entryY=0;entryDx=0;entryDy=0;" edge="1" parent="dQZ_Yxj7-OqG99hfKvkt-29" source="dQZ_Yxj7-OqG99hfKvkt-33" target="dQZ_Yxj7-OqG99hfKvkt-44">
          <mxGeometry relative="1" as="geometry">
            <mxPoint x="100" y="330" as="targetPoint" />
            <mxPoint x="170" y="170" as="sourcePoint" />
          </mxGeometry>
        </mxCell>
        <mxCell id="dQZ_Yxj7-OqG99hfKvkt-47" value="Selects product report" style="rounded=1;whiteSpace=wrap;html=1;arcSize=40;fontColor=#000000;fillColor=#FFFFFF;" vertex="1" parent="dQZ_Yxj7-OqG99hfKvkt-29">
          <mxGeometry x="300" y="410" width="120" height="40" as="geometry" />
        </mxCell>
        <mxCell id="dQZ_Yxj7-OqG99hfKvkt-51" value="" style="edgeStyle=orthogonalEdgeStyle;html=1;verticalAlign=bottom;endArrow=open;endSize=8;exitX=0.5;exitY=1;exitDx=0;exitDy=0;" edge="1" parent="dQZ_Yxj7-OqG99hfKvkt-29" source="dQZ_Yxj7-OqG99hfKvkt-44" target="dQZ_Yxj7-OqG99hfKvkt-47">
          <mxGeometry relative="1" as="geometry">
            <mxPoint x="106.96000000000004" y="428" as="targetPoint" />
            <mxPoint x="120" y="380" as="sourcePoint" />
          </mxGeometry>
        </mxCell>
        <mxCell id="dQZ_Yxj7-OqG99hfKvkt-38" value="Selects search sort by date" style="rounded=1;whiteSpace=wrap;html=1;arcSize=40;fontColor=#000000;fillColor=#FFFFFF;" vertex="1" parent="dQZ_Yxj7-OqG99hfKvkt-29">
          <mxGeometry x="220" y="520" width="120" height="40" as="geometry" />
        </mxCell>
        <mxCell id="dQZ_Yxj7-OqG99hfKvkt-41" value="" style="html=1;verticalAlign=bottom;endArrow=open;endSize=8;entryX=0.5;entryY=0;entryDx=0;entryDy=0;" edge="1" parent="dQZ_Yxj7-OqG99hfKvkt-29" source="dQZ_Yxj7-OqG99hfKvkt-38" target="dQZ_Yxj7-OqG99hfKvkt-34">
          <mxGeometry relative="1" as="geometry">
            <mxPoint x="90" y="700" as="targetPoint" />
            <mxPoint x="99.5" y="630" as="sourcePoint" />
          </mxGeometry>
        </mxCell>
        <mxCell id="dQZ_Yxj7-OqG99hfKvkt-53" value="" style="html=1;verticalAlign=bottom;endArrow=open;endSize=8;exitX=0.575;exitY=1.025;exitDx=0;exitDy=0;exitPerimeter=0;entryX=0.5;entryY=0;entryDx=0;entryDy=0;" edge="1" parent="dQZ_Yxj7-OqG99hfKvkt-29" source="dQZ_Yxj7-OqG99hfKvkt-47" target="dQZ_Yxj7-OqG99hfKvkt-38">
          <mxGeometry relative="1" as="geometry">
            <mxPoint x="290" y="570" as="targetPoint" />
            <mxPoint x="140" y="400" as="sourcePoint" />
          </mxGeometry>
        </mxCell>
        <mxCell id="dQZ_Yxj7-OqG99hfKvkt-35" value="Database" style="swimlane;" vertex="1" parent="1">
          <mxGeometry x="1080" y="190" width="200" height="680" as="geometry" />
        </mxCell>
        <mxCell id="dQZ_Yxj7-OqG99hfKvkt-36" value="" style="edgeStyle=orthogonalEdgeStyle;html=1;verticalAlign=bottom;endArrow=open;endSize=8;exitX=0.5;exitY=1;exitDx=0;exitDy=0;entryX=0.5;entryY=0;entryDx=0;entryDy=0;" edge="1" parent="1" source="dQZ_Yxj7-OqG99hfKvkt-28" target="dQZ_Yxj7-OqG99hfKvkt-33">
          <mxGeometry relative="1" as="geometry">
            <mxPoint x="664" y="340" as="targetPoint" />
            <Array as="points">
              <mxPoint x="930" y="400" />
              <mxPoint x="360" y="400" />
            </Array>
          </mxGeometry>
        </mxCell>
        <mxCell id="dQZ_Yxj7-OqG99hfKvkt-37" value="" style="edgeStyle=orthogonalEdgeStyle;html=1;verticalAlign=bottom;endArrow=open;endSize=8;exitX=1;exitY=0.5;exitDx=0;exitDy=0;entryX=0;entryY=0.5;entryDx=0;entryDy=0;" edge="1" parent="1" source="dQZ_Yxj7-OqG99hfKvkt-32" target="dQZ_Yxj7-OqG99hfKvkt-28">
          <mxGeometry relative="1" as="geometry">
            <mxPoint x="410" y="340" as="targetPoint" />
          </mxGeometry>
        </mxCell>
        <mxCell id="dQZ_Yxj7-OqG99hfKvkt-45" value="Selects sale report" style="rounded=1;whiteSpace=wrap;html=1;arcSize=40;fontColor=#000000;fillColor=#FFFFFF;" vertex="1" parent="1">
          <mxGeometry x="140" y="600" width="120" height="40" as="geometry" />
        </mxCell>
        <mxCell id="dQZ_Yxj7-OqG99hfKvkt-46" value="Selects customer report" style="rounded=1;whiteSpace=wrap;html=1;arcSize=40;fontColor=#000000;fillColor=#FFFFFF;" vertex="1" parent="1">
          <mxGeometry x="280" y="600" width="120" height="40" as="geometry" />
        </mxCell>
        <mxCell id="dQZ_Yxj7-OqG99hfKvkt-48" value="" style="edgeStyle=orthogonalEdgeStyle;html=1;verticalAlign=bottom;endArrow=open;endSize=8;exitX=0.5;exitY=1;exitDx=0;exitDy=0;entryX=0.558;entryY=-0.05;entryDx=0;entryDy=0;entryPerimeter=0;" edge="1" parent="1" source="dQZ_Yxj7-OqG99hfKvkt-44" target="dQZ_Yxj7-OqG99hfKvkt-45">
          <mxGeometry relative="1" as="geometry">
            <mxPoint x="230" y="520" as="targetPoint" />
            <mxPoint x="230" y="490" as="sourcePoint" />
          </mxGeometry>
        </mxCell>
        <mxCell id="dQZ_Yxj7-OqG99hfKvkt-49" value="" style="html=1;verticalAlign=bottom;endArrow=open;endSize=8;entryX=0.442;entryY=0;entryDx=0;entryDy=0;entryPerimeter=0;" edge="1" parent="1" source="dQZ_Yxj7-OqG99hfKvkt-45" target="dQZ_Yxj7-OqG99hfKvkt-38">
          <mxGeometry relative="1" as="geometry">
            <mxPoint x="430" y="800" as="targetPoint" />
            <mxPoint x="240" y="500" as="sourcePoint" />
          </mxGeometry>
        </mxCell>
        <mxCell id="dQZ_Yxj7-OqG99hfKvkt-50" value="" style="edgeStyle=orthogonalEdgeStyle;html=1;verticalAlign=bottom;endArrow=open;endSize=8;exitX=0.5;exitY=1;exitDx=0;exitDy=0;entryX=0.5;entryY=0;entryDx=0;entryDy=0;" edge="1" parent="1" source="dQZ_Yxj7-OqG99hfKvkt-44" target="dQZ_Yxj7-OqG99hfKvkt-46">
          <mxGeometry relative="1" as="geometry">
            <mxPoint x="216.96000000000004" y="608" as="targetPoint" />
            <mxPoint x="230" y="560" as="sourcePoint" />
          </mxGeometry>
        </mxCell>
        <mxCell id="dQZ_Yxj7-OqG99hfKvkt-52" value="" style="html=1;verticalAlign=bottom;endArrow=open;endSize=8;" edge="1" parent="1" source="dQZ_Yxj7-OqG99hfKvkt-46" target="dQZ_Yxj7-OqG99hfKvkt-38">
          <mxGeometry relative="1" as="geometry">
            <mxPoint x="420" y="770" as="targetPoint" />
            <mxPoint x="250" y="580" as="sourcePoint" />
          </mxGeometry>
        </mxCell>
        <mxCell id="dQZ_Yxj7-OqG99hfKvkt-55" value="Selects supplier report" style="rounded=1;whiteSpace=wrap;html=1;arcSize=40;fontColor=#000000;fillColor=#FFFFFF;" vertex="1" parent="1">
          <mxGeometry x="570" y="600" width="120" height="40" as="geometry" />
        </mxCell>
        <mxCell id="dQZ_Yxj7-OqG99hfKvkt-56" value="" style="edgeStyle=orthogonalEdgeStyle;html=1;verticalAlign=bottom;endArrow=open;endSize=8;exitX=0.5;exitY=1;exitDx=0;exitDy=0;" edge="1" parent="1" target="dQZ_Yxj7-OqG99hfKvkt-55" source="dQZ_Yxj7-OqG99hfKvkt-44">
          <mxGeometry relative="1" as="geometry">
            <mxPoint x="256.96000000000004" y="428" as="targetPoint" />
            <mxPoint x="510" y="550" as="sourcePoint" />
          </mxGeometry>
        </mxCell>
        <mxCell id="dQZ_Yxj7-OqG99hfKvkt-57" value="" style="html=1;verticalAlign=bottom;endArrow=open;endSize=8;exitX=0.575;exitY=1.025;exitDx=0;exitDy=0;exitPerimeter=0;entryX=0.558;entryY=0.05;entryDx=0;entryDy=0;entryPerimeter=0;" edge="1" parent="1" source="dQZ_Yxj7-OqG99hfKvkt-55" target="dQZ_Yxj7-OqG99hfKvkt-38">
          <mxGeometry relative="1" as="geometry">
            <mxPoint x="430" y="790" as="targetPoint" />
            <mxPoint x="410" y="590" as="sourcePoint" />
          </mxGeometry>
        </mxCell>
        <mxCell id="dQZ_Yxj7-OqG99hfKvkt-58" value="Receives result" style="rounded=1;whiteSpace=wrap;html=1;arcSize=40;fontColor=#000000;fillColor=#FFFFFF;" vertex="1" parent="1">
          <mxGeometry x="340" y="860" width="120" height="40" as="geometry" />
        </mxCell>
        <mxCell id="dQZ_Yxj7-OqG99hfKvkt-59" value="" style="html=1;verticalAlign=bottom;endArrow=open;endSize=8;entryX=0.5;entryY=0;entryDx=0;entryDy=0;" edge="1" parent="1" source="dQZ_Yxj7-OqG99hfKvkt-58" target="dQZ_Yxj7-OqG99hfKvkt-62">
          <mxGeometry relative="1" as="geometry">
            <mxPoint x="400" y="930" as="targetPoint" />
            <mxPoint x="99.5" y="780" as="sourcePoint" />
          </mxGeometry>
        </mxCell>
        <mxCell id="dQZ_Yxj7-OqG99hfKvkt-60" value="" style="html=1;verticalAlign=bottom;endArrow=open;endSize=8;entryX=0.5;entryY=0;entryDx=0;entryDy=0;exitX=0.5;exitY=1;exitDx=0;exitDy=0;" edge="1" parent="1" source="dQZ_Yxj7-OqG99hfKvkt-34" target="dQZ_Yxj7-OqG99hfKvkt-58">
          <mxGeometry relative="1" as="geometry">
            <mxPoint x="410" y="790" as="targetPoint" />
            <mxPoint x="410" y="760" as="sourcePoint" />
          </mxGeometry>
        </mxCell>
        <mxCell id="dQZ_Yxj7-OqG99hfKvkt-62" value="Selects to export to CVS" style="rounded=1;whiteSpace=wrap;html=1;arcSize=40;fontColor=#000000;fillColor=#FFFFFF;" vertex="1" parent="1">
          <mxGeometry x="340" y="930" width="120" height="40" as="geometry" />
        </mxCell>
        <mxCell id="dQZ_Yxj7-OqG99hfKvkt-63" value="" style="html=1;verticalAlign=bottom;endArrow=open;endSize=8;entryX=0.5;entryY=0;entryDx=0;entryDy=0;" edge="1" parent="1" source="dQZ_Yxj7-OqG99hfKvkt-62" target="dQZ_Yxj7-OqG99hfKvkt-64">
          <mxGeometry relative="1" as="geometry">
            <mxPoint x="400" y="1000" as="targetPoint" />
            <mxPoint x="99.5" y="850" as="sourcePoint" />
          </mxGeometry>
        </mxCell>
        <mxCell id="dQZ_Yxj7-OqG99hfKvkt-64" value="Enter the required criteria to export" style="rounded=1;whiteSpace=wrap;html=1;arcSize=40;fontColor=#000000;fillColor=#FFFFFF;" vertex="1" parent="1">
          <mxGeometry x="340" y="1000" width="120" height="40" as="geometry" />
        </mxCell>
        <mxCell id="dQZ_Yxj7-OqG99hfKvkt-65" value="Receives the download CVS files" style="rounded=1;whiteSpace=wrap;html=1;arcSize=40;fontColor=#000000;fillColor=#FFFFFF;" vertex="1" parent="1">
          <mxGeometry x="340" y="1080" width="120" height="40" as="geometry" />
        </mxCell>
        <mxCell id="dQZ_Yxj7-OqG99hfKvkt-66" value="" style="html=1;verticalAlign=bottom;endArrow=open;endSize=8;entryX=0.5;entryY=0;entryDx=0;entryDy=0;" edge="1" parent="1" source="dQZ_Yxj7-OqG99hfKvkt-65">
          <mxGeometry relative="1" as="geometry">
            <mxPoint x="399.9999999999999" y="1150" as="targetPoint" />
            <mxPoint x="99.5" y="1000" as="sourcePoint" />
          </mxGeometry>
        </mxCell>
        <mxCell id="dQZ_Yxj7-OqG99hfKvkt-67" value="" style="html=1;verticalAlign=bottom;endArrow=open;endSize=8;entryX=0.5;entryY=0;entryDx=0;entryDy=0;exitX=0.5;exitY=1;exitDx=0;exitDy=0;" edge="1" parent="1" source="dQZ_Yxj7-OqG99hfKvkt-64" target="dQZ_Yxj7-OqG99hfKvkt-65">
          <mxGeometry relative="1" as="geometry">
            <mxPoint x="410" y="1010" as="targetPoint" />
            <mxPoint x="410" y="980" as="sourcePoint" />
          </mxGeometry>
        </mxCell>
      </root>
    </mxGraphModel>
  </diagram>
</mxfile>
